{"glyphs":{"0":{"ha":1110,"x_min":68,"x_max":1044,"o":"m 1044 140 l 904 140 l 904 0 l 208 0 l 208 142 l 68 142 l 68 836 l 208 836 l 208 976 l 904 976 l 904 836 l 1044 836 l 1044 140 m 764 140 l 764 836 l 349 836 l 349 140 l 764 140 z "},"1":{"ha":1110,"x_min":208,"x_max":904,"o":"m 904 0 l 208 0 l 208 133 l 350 133 l 350 704 l 208 704 l 208 836 l 349 836 l 349 976 l 764 976 l 764 132 l 904 132 l 904 0 z "},"2":{"ha":1110,"x_min":68,"x_max":1044,"o":"m 1044 563 l 904 563 l 904 422 l 622 422 l 621 278 l 342 276 l 343 149 l 1044 147 l 1044 0 l 68 0 l 68 274 l 208 274 l 208 414 l 490 414 l 490 556 l 771 556 l 771 844 l 340 844 l 340 704 l 68 704 l 68 836 l 208 836 l 208 976 l 904 976 l 904 836 l 1044 836 l 1044 563 z "},"3":{"ha":1110,"x_min":68,"x_max":1044,"o":"m 1044 140 l 904 140 l 904 0 l 208 0 l 208 142 l 68 142 l 68 274 l 342 274 l 342 132 l 771 132 l 771 422 l 350 422 l 350 556 l 771 556 l 771 844 l 340 844 l 340 704 l 68 704 l 68 836 l 208 836 l 208 976 l 904 976 l 904 836 l 1044 836 l 1044 554 l 904 556 l 906 414 l 1044 414 l 1044 140 z "},"4":{"ha":1110,"x_min":68,"x_max":1044,"o":"m 1044 281 l 904 281 l 904 0 l 631 0 l 631 282 l 68 282 l 68 556 l 208 556 l 208 696 l 350 696 l 350 836 l 490 836 l 490 976 l 904 976 l 904 414 l 1044 414 l 1044 281 m 622 422 l 622 696 l 490 696 l 490 556 l 349 556 l 349 422 l 622 422 z "},"5":{"ha":1110,"x_min":68,"x_max":1044,"o":"m 1044 140 l 904 140 l 904 0 l 208 0 l 208 142 l 68 142 l 68 274 l 342 274 l 342 132 l 771 132 l 771 563 l 68 563 l 68 976 l 1017 976 l 1017 829 l 342 831 l 342 701 l 904 703 l 904 554 l 1044 554 l 1044 140 z "},"6":{"ha":1110,"x_min":68,"x_max":1044,"o":"m 1044 140 l 904 140 l 904 0 l 208 0 l 208 142 l 68 142 l 68 836 l 208 836 l 208 976 l 1017 976 l 1017 829 l 342 831 l 342 701 l 904 703 l 904 554 l 1044 554 l 1044 140 m 764 140 l 764 554 l 349 554 l 349 140 l 764 140 z "},"7":{"ha":1110,"x_min":68,"x_max":1044,"o":"m 1044 704 l 904 704 l 904 563 l 763 563 l 763 422 l 622 422 l 622 281 l 482 281 l 482 140 l 340 140 l 340 0 l 68 0 l 68 274 l 208 274 l 208 414 l 350 414 l 350 556 l 490 556 l 490 697 q 629 721 551 682 l 629 832 q 68 829 382 853 l 68 976 l 1044 976 l 1044 704 z "},"8":{"ha":1110,"x_min":68,"x_max":1044,"o":"m 1044 140 l 904 140 l 904 0 l 208 0 l 208 142 l 68 142 l 68 415 q 207 440 128 401 l 207 564 l 68 564 l 68 836 l 208 836 l 208 976 l 904 976 l 904 836 l 1044 836 l 1044 561 q 906 538 983 576 l 906 414 l 1044 414 l 1044 140 m 763 563 l 763 836 l 349 836 l 349 563 l 763 563 m 763 140 l 763 414 l 349 414 l 349 140 l 763 140 z "},"9":{"ha":1110,"x_min":67,"x_max":1044,"o":"m 1044 140 l 904 140 l 904 0 l 96 0 l 96 147 l 771 146 l 771 275 l 208 274 l 208 422 l 67 422 l 67 836 l 208 836 l 208 976 l 904 976 l 904 836 l 1044 836 l 1044 140 m 763 422 l 763 836 l 349 836 l 349 422 l 763 422 z "}," ":{"ha":1110,"x_min":0,"x_max":0,"o":""},"!":{"ha":1110,"x_min":68,"x_max":1044,"o":"m 1044 704 l 904 704 l 904 563 l 763 563 l 763 422 l 490 422 l 490 696 l 631 696 l 631 836 l 771 836 l 771 976 l 1044 976 l 1044 704 m 340 0 l 68 0 l 68 274 l 340 274 l 340 0 z "},"\"":{"ha":1110,"x_min":208,"x_max":904,"o":"m 904 563 l 771 563 l 771 704 l 631 704 l 631 976 l 904 976 l 904 563 m 763 422 l 631 422 l 631 563 l 761 563 l 763 422 m 482 563 l 347 563 l 349 704 l 208 704 l 208 976 l 482 976 l 482 563 m 340 422 l 210 422 l 208 563 l 340 563 l 340 422 z "},"#":{"ha":1110,"x_min":68,"x_max":1044,"o":"m 1044 140 l 904 140 l 904 0 l 629 0 l 631 138 l 482 139 l 482 0 l 208 0 l 208 142 l 68 142 l 68 274 l 208 274 l 208 704 l 68 704 l 68 836 l 208 836 l 208 976 l 483 976 l 482 838 l 631 838 l 631 978 l 904 978 l 904 836 l 1044 836 l 1044 703 l 904 703 l 904 274 l 1044 274 l 1044 140 m 622 282 l 622 696 l 490 696 l 490 282 l 622 282 z "},"$":{"ha":1110,"x_min":68,"x_max":1044,"o":"m 1044 281 l 904 281 l 904 140 l 622 140 l 622 0 l 489 0 l 489 142 l 208 142 l 208 283 l 486 282 l 486 421 l 208 422 l 208 564 l 68 564 l 68 696 l 208 696 l 208 836 l 490 836 l 490 976 l 622 976 l 622 836 l 904 836 l 904 696 l 625 697 l 625 569 l 903 569 l 904 414 l 1044 414 l 1044 281 m 482 563 l 482 696 l 349 696 l 349 563 l 482 563 m 764 282 l 764 414 l 631 414 l 631 282 l 764 282 z "},"%":{"ha":1110,"x_min":68,"x_max":1044,"o":"m 1044 704 l 904 704 l 904 563 l 763 563 l 763 422 l 622 422 l 622 281 l 482 281 l 482 140 l 340 140 l 340 0 l 68 0 l 68 274 l 208 274 l 208 414 l 350 414 l 350 556 l 490 556 l 490 696 l 631 696 l 631 836 l 771 836 l 771 976 l 1044 976 l 1044 704 m 340 704 l 68 704 l 68 976 l 340 976 l 340 704 m 1044 0 l 771 0 l 771 274 l 1044 274 l 1044 0 z "},"&":{"ha":1110,"x_min":68,"x_max":1044,"o":"m 1044 704 l 771 704 l 771 844 l 340 844 l 340 554 l 1044 554 l 1044 422 l 904 422 l 904 140 l 763 140 l 763 0 l 208 0 l 208 142 l 68 142 l 68 415 l 208 415 l 207 564 l 68 564 l 68 836 l 208 836 l 208 976 l 904 976 l 904 836 l 1044 836 l 1044 704 m 622 140 l 622 414 l 349 414 l 349 140 l 622 140 z "},"'":{"ha":1110,"x_min":349,"x_max":622,"o":"m 622 563 l 488 563 l 489 704 l 349 704 l 349 976 l 622 976 l 622 563 m 482 422 l 350 422 l 350 557 l 481 557 l 482 422 z "},"(":{"ha":1110,"x_min":208,"x_max":904,"o":"m 904 0 l 349 0 l 349 142 l 208 142 l 208 836 l 349 836 l 349 976 l 904 976 l 904 844 l 622 844 l 622 132 l 904 132 l 904 0 z "},")":{"ha":1110,"x_min":208,"x_max":904,"o":"m 904 140 l 763 140 l 763 0 l 208 0 l 208 133 l 490 133 l 490 844 l 208 844 l 208 976 l 764 976 l 764 836 l 904 836 l 904 140 z "},"*":{"ha":1110,"x_min":208,"x_max":904,"o":"m 904 844 l 772 844 l 772 838 l 763 838 l 763 563 l 769 563 l 769 554 l 904 554 l 904 424 l 769 424 l 769 554 l 763 554 l 763 563 l 622 563 l 622 422 l 489 422 l 488 563 l 349 561 l 349 556 l 340 556 l 340 422 l 208 422 l 208 556 l 340 556 l 340 561 l 349 561 l 349 838 l 342 838 l 342 844 l 208 844 l 208 976 l 343 976 l 342 844 l 349 844 l 349 838 l 490 838 l 490 976 l 624 976 l 622 838 l 763 838 l 763 844 l 772 844 l 772 976 l 904 976 l 904 844 z "},"+":{"ha":1110,"x_min":68,"x_max":1044,"o":"m 1044 422 l 622 422 l 622 0 l 490 0 l 490 422 l 68 422 l 68 556 l 490 556 l 490 976 l 622 976 l 622 554 l 1044 554 l 1044 422 z "},",":{"ha":1110,"x_min":208,"x_max":482,"o":"m 482 140 l 347 140 l 349 282 l 208 282 l 208 554 l 482 554 l 482 140 m 340 0 l 210 0 l 210 133 l 340 135 l 340 0 z "},"-":{"ha":1110,"x_min":208,"x_max":904,"o":"m 904 422 l 208 422 l 208 554 l 904 554 l 904 422 z "},"‐":{"ha":1110,"x_min":208,"x_max":904,"o":"m 904 422 l 208 422 l 208 554 l 904 554 l 904 422 z "},".":{"ha":1110,"x_min":208,"x_max":482,"o":"m 482 0 l 208 0 l 208 274 l 482 274 l 482 0 z "},"/":{"ha":1110,"x_min":68,"x_max":1044,"o":"m 1044 704 l 904 704 l 904 563 l 763 563 l 763 422 l 622 422 l 622 281 l 482 281 l 482 140 l 340 140 l 340 0 l 68 0 l 68 274 l 208 274 l 208 414 l 350 414 l 350 556 l 490 556 l 490 696 l 631 696 l 631 836 l 771 836 l 771 976 l 1044 976 l 1044 704 z "},":":{"ha":1110,"x_min":208,"x_max":622,"o":"m 622 703 l 482 703 l 482 563 l 349 563 l 349 704 l 208 704 l 208 836 l 349 836 l 349 976 l 482 976 l 482 836 l 622 836 l 622 703 m 622 140 l 482 140 l 482 0 l 349 0 l 349 142 l 208 142 l 208 274 l 349 274 l 349 414 l 482 414 l 482 272 l 622 272 l 622 140 z "},";":{"ha":1110,"x_min":208,"x_max":482,"o":"m 482 704 l 208 704 l 208 976 l 482 976 l 482 704 m 482 140 l 347 140 l 349 282 l 208 282 l 208 554 l 482 554 l 482 140 m 340 0 l 210 0 l 210 133 l 340 135 l 340 0 z "},"<":{"ha":1110,"x_min":68,"x_max":1044,"o":"m 1044 704 l 622 704 l 622 563 l 343 565 l 343 415 l 622 414 l 622 274 l 1044 274 l 1044 0 l 631 0 l 631 142 l 349 142 l 349 282 l 68 282 l 68 696 l 350 696 l 350 836 l 631 836 l 631 976 l 1044 976 l 1044 704 z "},"=":{"ha":1110,"x_min":68,"x_max":1044,"o":"m 1044 563 l 68 563 l 68 696 l 1044 696 l 1044 563 m 1044 281 l 68 281 l 68 414 l 1044 414 l 1044 281 z "},">":{"ha":1110,"x_min":68,"x_max":1044,"o":"m 1044 282 l 764 282 l 764 142 l 482 142 l 482 0 l 68 0 l 68 274 l 490 274 l 490 414 l 768 415 l 768 565 l 490 563 l 490 704 l 68 704 l 68 976 l 482 976 l 482 836 l 763 836 l 763 696 l 1044 696 l 1044 282 z "},"?":{"ha":1110,"x_min":68,"x_max":1044,"o":"m 1044 563 l 904 563 l 904 422 l 763 422 l 763 282 l 490 282 l 490 556 l 771 556 l 771 844 l 340 844 l 340 704 l 68 704 l 68 836 l 208 836 l 208 976 l 904 976 l 904 836 l 1044 836 l 1044 563 m 763 0 l 490 0 l 490 132 l 763 132 l 763 0 z "},"@":{"ha":1110,"x_min":68,"x_max":1044,"o":"m 1044 282 l 763 282 l 763 140 l 631 140 l 631 282 l 490 282 l 490 556 l 632 556 l 632 697 l 769 699 l 769 835 l 340 838 l 340 132 l 482 132 l 482 0 l 208 0 l 208 142 l 68 142 l 68 836 l 208 836 l 208 976 l 904 976 l 904 836 l 1044 836 l 1044 282 m 764 282 l 764 554 l 631 554 l 631 282 l 764 282 z "},"A":{"ha":1110,"x_min":67,"x_max":1044,"o":"m 1044 0 l 771 0 l 771 282 l 340 282 l 340 0 l 67 0 l 67 556 l 208 556 l 208 836 l 349 836 l 349 976 l 763 976 l 763 836 l 903 836 l 903 554 l 1044 554 l 1044 0 m 763 422 l 763 696 l 622 696 l 622 836 l 489 836 l 489 696 l 349 696 l 349 422 l 763 422 z "},"B":{"ha":1110,"x_min":68,"x_max":1044,"o":"m 1044 140 l 904 140 l 904 0 l 68 0 l 68 976 l 904 976 l 904 836 l 1044 836 l 1044 561 l 903 560 l 906 414 l 1044 414 l 1044 140 m 763 563 l 763 836 l 349 836 l 349 563 l 763 563 m 763 140 l 763 414 l 349 414 l 349 140 l 763 140 z "},"C":{"ha":1110,"x_min":68,"x_max":1044,"o":"m 1044 704 l 771 704 l 771 844 l 340 844 l 340 132 l 772 132 l 772 274 l 1044 274 l 1044 140 l 904 140 l 904 0 l 208 0 l 208 142 l 68 142 l 68 836 l 208 836 l 208 976 l 904 976 l 904 836 l 1044 836 l 1044 704 z "},"D":{"ha":1110,"x_min":68,"x_max":1044,"o":"m 1044 140 l 904 140 l 904 0 l 68 0 l 68 976 l 904 976 l 904 836 l 1044 836 l 1044 140 m 764 140 l 764 836 l 349 836 l 349 140 l 764 140 z "},"E":{"ha":1110,"x_min":68,"x_max":1044,"o":"m 1044 0 l 68 0 l 68 976 l 1044 976 l 1044 844 l 342 844 l 342 554 l 904 554 l 904 422 l 340 422 l 340 132 l 1044 132 l 1044 0 z "},"F":{"ha":1110,"x_min":68,"x_max":1044,"o":"m 1044 844 l 342 844 l 342 554 l 904 554 l 904 422 l 340 422 l 340 0 l 68 0 l 68 976 l 1044 976 l 1044 844 z "},"G":{"ha":1110,"x_min":68,"x_max":1044,"o":"m 1044 140 l 904 140 l 904 0 l 208 0 l 208 142 l 68 142 l 68 836 l 208 836 l 208 976 l 904 976 l 904 836 l 1044 836 l 1044 704 l 771 704 l 771 844 l 340 844 l 340 132 l 771 132 l 771 422 l 490 422 l 490 556 l 1044 556 l 1044 140 z "},"H":{"ha":1110,"x_min":68,"x_max":1044,"o":"m 1044 0 l 771 0 l 771 422 l 340 422 l 340 0 l 68 0 l 68 976 l 342 976 l 342 554 l 772 554 l 772 976 l 1044 976 l 1044 0 z "},"I":{"ha":1110,"x_min":208,"x_max":904,"o":"m 904 0 l 208 0 l 208 133 l 350 133 l 350 844 l 208 844 l 208 976 l 904 976 l 904 844 l 763 844 l 763 132 l 904 132 l 904 0 z "},"J":{"ha":1110,"x_min":68,"x_max":1044,"o":"m 1044 844 l 904 844 l 904 140 l 763 140 l 763 0 l 208 0 l 208 142 l 68 142 l 68 414 l 342 414 l 342 132 l 631 132 l 631 844 l 349 844 l 349 976 l 1044 976 l 1044 844 z "},"K":{"ha":1110,"x_min":68,"x_max":1044,"o":"m 1044 0 l 631 0 l 631 142 l 489 142 l 486 282 l 343 282 l 340 0 l 68 0 l 68 976 l 342 976 l 343 699 l 490 696 l 490 836 l 631 836 l 631 978 l 1044 978 l 1044 844 l 904 844 l 904 703 l 763 703 l 763 561 l 625 560 l 624 414 l 764 414 l 764 272 l 904 272 l 904 132 l 1044 132 l 1044 0 z "},"L":{"ha":1110,"x_min":68,"x_max":1044,"o":"m 1044 0 l 68 0 l 68 976 l 342 976 l 342 132 l 1044 132 l 1044 0 z "},"M":{"ha":1110,"x_min":68,"x_max":1044,"o":"m 1044 0 l 771 0 l 769 421 l 635 421 l 636 0 l 471 0 l 472 421 l 343 421 l 340 0 l 68 0 l 68 976 l 200 976 l 200 836 l 342 836 l 342 694 l 483 694 l 482 554 l 631 556 l 631 696 l 772 696 l 772 836 l 913 836 l 913 976 l 1044 976 l 1044 0 z "},"N":{"ha":1110,"x_min":68,"x_max":1044,"o":"m 1044 0 l 771 0 l 771 142 l 631 142 l 631 282 l 489 282 l 486 421 l 343 421 l 340 0 l 68 0 l 68 976 l 342 976 l 342 836 l 482 836 l 482 694 l 624 694 l 625 554 l 769 554 l 771 976 l 1044 976 l 1044 0 z "},"O":{"ha":1110,"x_min":68,"x_max":1044,"o":"m 1044 140 l 904 140 l 904 0 l 208 0 l 208 142 l 68 142 l 68 836 l 208 836 l 208 976 l 904 976 l 904 836 l 1044 836 l 1044 140 m 764 140 l 764 836 l 349 836 l 349 140 l 764 140 z "},"P":{"ha":1110,"x_min":68,"x_max":1044,"o":"m 1044 422 l 904 422 l 904 282 l 340 282 l 340 0 l 68 0 l 68 976 l 904 976 l 904 836 l 1044 836 l 1044 422 m 764 422 l 764 836 l 349 836 l 349 422 l 764 422 z "},"Q":{"ha":1110,"x_min":68,"x_max":1044,"o":"m 1044 0 l 208 0 l 208 142 l 68 142 l 68 836 l 208 836 l 208 976 l 904 976 l 904 836 l 1044 836 l 1044 281 l 904 281 l 906 132 l 1044 132 l 1044 0 m 764 282 l 764 836 l 349 836 l 349 140 l 622 140 l 622 272 l 482 272 l 482 419 l 629 419 l 631 282 l 764 282 z "},"R":{"ha":1110,"x_min":68,"x_max":1044,"o":"m 1044 422 l 904 422 l 904 132 l 1044 132 l 1044 0 l 771 0 l 771 142 l 631 142 l 631 282 l 340 282 l 340 0 l 68 0 l 68 976 l 904 976 l 904 836 l 1044 836 l 1044 422 m 764 422 l 764 836 l 349 836 l 349 422 l 764 422 z "},"S":{"ha":1110,"x_min":68,"x_max":1044,"o":"m 1044 140 l 904 140 l 904 0 l 208 0 l 208 142 l 68 142 l 68 274 l 342 274 l 342 132 l 771 132 l 771 422 l 208 422 l 208 564 l 68 564 l 68 836 l 208 836 l 208 976 l 904 976 l 904 836 l 1044 836 l 1044 704 l 771 704 l 771 844 l 340 844 l 340 554 l 904 554 l 904 414 l 1044 414 l 1044 140 z "},"T":{"ha":1110,"x_min":68,"x_max":1044,"o":"m 1044 844 l 763 844 l 763 0 l 349 0 l 349 844 l 68 844 l 68 976 l 1044 976 l 1044 844 z "},"U":{"ha":1110,"x_min":68,"x_max":1044,"o":"m 1044 140 l 904 140 l 904 0 l 208 0 l 208 142 l 68 142 l 68 976 l 342 976 l 342 132 l 772 132 l 772 976 l 1044 976 l 1044 140 z "},"V":{"ha":1110,"x_min":68,"x_max":1044,"o":"m 1044 563 l 904 563 l 904 282 l 763 282 l 763 0 l 349 0 l 349 282 l 208 282 l 208 564 l 68 564 l 68 976 l 342 976 l 342 554 l 482 554 l 482 283 l 631 283 l 631 554 l 772 554 l 772 976 l 1044 976 l 1044 563 z "},"W":{"ha":1110,"x_min":68,"x_max":1044,"o":"m 1044 422 l 904 422 l 904 0 l 629 0 l 631 138 l 482 139 l 482 0 l 208 0 l 208 422 l 68 422 l 68 976 l 342 976 l 343 554 l 479 554 l 483 976 l 631 976 l 628 554 l 769 554 l 771 976 l 1044 976 l 1044 422 z "},"X":{"ha":1110,"x_min":68,"x_max":1044,"o":"m 1044 0 l 771 0 l 771 142 l 631 142 l 631 415 l 482 415 l 482 140 l 340 140 l 340 0 l 68 0 l 68 274 l 210 274 l 210 415 l 347 415 l 349 564 l 208 564 l 208 704 l 68 704 l 68 976 l 342 976 l 342 836 l 482 836 l 482 565 l 631 565 l 631 836 l 772 836 l 772 978 l 1044 978 l 1044 704 l 903 704 l 903 561 l 764 560 l 764 414 l 904 414 l 904 272 l 1044 272 l 1044 0 z "},"Y":{"ha":1110,"x_min":68,"x_max":1044,"o":"m 1044 704 l 904 704 l 904 422 l 763 422 l 763 0 l 349 0 l 349 422 l 208 422 l 208 704 l 68 704 l 68 976 l 342 976 l 342 694 l 483 694 l 482 554 l 631 556 l 631 696 l 772 696 l 772 976 l 1044 976 l 1044 704 z "},"Z":{"ha":1110,"x_min":68,"x_max":1044,"o":"m 1044 704 l 904 704 l 904 563 l 763 563 l 763 422 l 621 422 l 621 281 l 482 282 l 483 146 l 1044 147 l 1044 0 l 68 0 l 68 274 l 208 274 l 208 414 l 350 414 l 350 556 l 490 556 l 490 697 l 631 699 l 629 832 l 68 829 l 68 976 l 1044 976 l 1044 704 z "},"[":{"ha":1110,"x_min":208,"x_max":904,"o":"m 904 0 l 208 0 l 208 976 l 904 976 l 904 844 l 482 844 l 482 132 l 904 132 l 904 0 z "},"\\":{"ha":1110,"x_min":68,"x_max":1044,"o":"m 1044 0 l 771 0 l 771 142 l 631 142 l 631 282 l 490 282 l 490 422 l 349 422 l 349 564 l 208 564 l 208 704 l 68 704 l 68 976 l 342 976 l 342 836 l 482 836 l 482 696 l 622 696 l 622 554 l 764 554 l 764 414 l 904 414 l 904 272 l 1044 272 l 1044 0 z "},"]":{"ha":1110,"x_min":208,"x_max":904,"o":"m 904 0 l 208 0 l 208 133 l 631 133 l 631 844 l 208 844 l 208 976 l 904 976 l 904 0 z "},"^":{"ha":1110,"x_min":208,"x_max":904,"o":"m 904 563 l 771 563 l 771 696 l 764 696 l 764 704 l 629 704 l 628 836 l 764 836 l 764 704 l 771 704 l 771 696 l 904 696 l 904 563 m 622 843 l 490 843 l 490 836 l 482 836 l 482 703 l 350 703 l 350 696 l 340 696 l 340 563 l 208 563 l 208 696 l 340 696 l 340 703 l 350 703 l 350 836 l 482 836 l 482 843 l 490 843 l 490 976 l 622 976 l 622 843 z "},"_":{"ha":1110,"x_min":68,"x_max":1044,"o":"m 1044 0 l 68 0 l 68 132 l 1044 132 l 1044 0 z "},"`":{"ha":1110,"x_min":349,"x_max":763,"o":"m 763 563 l 631 563 l 631 696 l 622 696 l 622 704 l 490 704 l 490 836 l 482 836 l 482 844 l 349 844 l 349 976 l 482 976 l 482 844 l 490 844 l 490 836 l 622 836 l 622 704 l 631 704 l 631 696 l 763 696 l 763 563 z "},"a":{"ha":1110,"x_min":68,"x_max":1044,"o":"m 1044 0 l 771 0 l 771 282 l 340 282 l 340 0 l 68 0 l 68 556 l 208 556 l 208 836 l 349 836 l 349 976 l 764 976 l 764 836 l 904 836 l 904 554 l 1044 554 l 1044 0 m 764 422 l 764 696 l 622 696 l 622 836 l 490 836 l 490 696 l 349 696 l 349 422 l 764 422 z "},"b":{"ha":1110,"x_min":68,"x_max":1044,"o":"m 1044 140 l 904 140 l 904 0 l 68 0 l 68 976 l 904 976 l 904 836 l 1044 836 l 1044 561 l 903 560 l 906 414 l 1044 414 l 1044 140 m 763 563 l 763 836 l 349 836 l 349 563 l 763 563 m 763 140 l 763 414 l 349 414 l 349 140 l 763 140 z "},"c":{"ha":1110,"x_min":68,"x_max":1044,"o":"m 1044 704 l 771 704 l 771 844 l 340 844 l 340 132 l 772 132 l 772 274 l 1044 274 l 1044 140 l 904 140 l 904 0 l 208 0 l 208 142 l 68 142 l 68 836 l 208 836 l 208 976 l 904 976 l 904 836 l 1044 836 l 1044 704 z "},"d":{"ha":1110,"x_min":68,"x_max":1044,"o":"m 1044 140 l 904 140 l 904 0 l 68 0 l 68 976 l 904 976 l 904 836 l 1044 836 l 1044 140 m 764 140 l 764 836 l 349 836 l 349 140 l 764 140 z "},"e":{"ha":1110,"x_min":68,"x_max":1044,"o":"m 1044 0 l 68 0 l 68 976 l 1044 976 l 1044 844 l 342 844 l 342 554 l 904 554 l 904 422 l 340 422 l 340 132 l 1044 132 l 1044 0 z "},"f":{"ha":1110,"x_min":68,"x_max":1044,"o":"m 1044 844 l 342 844 l 342 554 l 904 554 l 904 422 l 340 422 l 340 0 l 68 0 l 68 976 l 1044 976 l 1044 844 z "},"g":{"ha":1110,"x_min":68,"x_max":1044,"o":"m 1044 140 l 904 140 l 904 0 l 208 0 l 208 142 l 68 142 l 68 836 l 208 836 l 208 976 l 904 976 l 904 836 l 1044 836 l 1044 704 l 771 704 l 771 844 l 340 844 l 340 132 l 771 132 l 771 422 l 490 422 l 490 556 l 1044 556 l 1044 140 z "},"h":{"ha":1110,"x_min":68,"x_max":1044,"o":"m 1044 0 l 771 0 l 771 422 l 340 422 l 340 0 l 68 0 l 68 976 l 342 976 l 342 554 l 772 554 l 772 976 l 1044 976 l 1044 0 z "},"i":{"ha":1110,"x_min":208,"x_max":904,"o":"m 904 0 l 208 0 l 208 133 l 350 133 l 350 844 l 208 844 l 208 976 l 904 976 l 904 844 l 763 844 l 763 132 l 904 132 l 904 0 z "},"j":{"ha":1110,"x_min":68,"x_max":1044,"o":"m 1044 844 l 904 844 l 904 140 l 763 140 l 763 0 l 208 0 l 208 142 l 68 142 l 68 414 l 342 414 l 342 132 l 631 132 l 631 844 l 349 844 l 349 976 l 1044 976 l 1044 844 z "},"k":{"ha":1110,"x_min":68,"x_max":1044,"o":"m 1044 0 l 631 0 l 631 142 l 489 142 l 486 282 l 343 282 l 340 0 l 68 0 l 68 976 l 342 976 l 343 699 l 490 696 l 490 836 l 631 836 l 631 978 l 1044 978 l 1044 844 l 904 844 l 904 703 l 763 703 l 763 561 l 625 560 l 624 414 l 764 414 l 764 272 l 904 272 l 904 132 l 1044 132 l 1044 0 z "},"l":{"ha":1110,"x_min":68,"x_max":1044,"o":"m 1044 0 l 68 0 l 68 976 l 342 976 l 342 132 l 1044 132 l 1044 0 z "},"m":{"ha":1110,"x_min":68,"x_max":1044,"o":"m 1044 0 l 771 0 l 769 421 l 635 421 l 636 0 l 471 0 l 472 421 l 343 421 l 340 0 l 68 0 l 68 976 l 200 976 l 200 836 l 342 836 l 342 694 l 483 694 l 482 554 l 631 556 l 631 696 l 772 696 l 772 836 l 913 836 l 913 976 l 1044 976 l 1044 0 z "},"n":{"ha":1110,"x_min":68,"x_max":1044,"o":"m 1044 0 l 771 0 l 771 142 l 631 142 l 631 282 l 489 282 l 486 421 l 343 421 l 340 0 l 68 0 l 68 976 l 342 976 l 342 836 l 482 836 l 482 694 l 624 694 l 625 554 l 769 554 l 771 976 l 1044 976 l 1044 0 z "},"o":{"ha":1110,"x_min":68,"x_max":1044,"o":"m 1044 140 l 904 140 l 904 0 l 208 0 l 208 142 l 68 142 l 68 836 l 208 836 l 208 976 l 904 976 l 904 836 l 1044 836 l 1044 140 m 764 140 l 764 836 l 349 836 l 349 140 l 764 140 z "},"p":{"ha":1110,"x_min":68,"x_max":1044,"o":"m 1044 422 l 904 422 l 904 282 l 340 282 l 340 0 l 68 0 l 68 976 l 904 976 l 904 836 l 1044 836 l 1044 422 m 764 422 l 764 836 l 349 836 l 349 422 l 764 422 z "},"q":{"ha":1110,"x_min":68,"x_max":1044,"o":"m 1044 0 l 208 0 l 208 142 l 68 142 l 68 836 l 208 836 l 208 976 l 904 976 l 904 836 l 1044 836 l 1044 281 l 904 281 l 906 132 l 1044 132 l 1044 0 m 764 282 l 764 836 l 349 836 l 349 140 l 622 140 l 622 272 l 482 272 l 482 419 l 629 419 l 631 282 l 764 282 z "},"r":{"ha":1110,"x_min":68,"x_max":1044,"o":"m 1044 422 l 904 422 l 904 132 l 1044 132 l 1044 0 l 771 0 l 771 142 l 631 142 l 631 282 l 340 282 l 340 0 l 68 0 l 68 976 l 904 976 l 904 836 l 1044 836 l 1044 422 m 764 422 l 764 836 l 349 836 l 349 422 l 764 422 z "},"s":{"ha":1110,"x_min":68,"x_max":1044,"o":"m 1044 140 l 904 140 l 904 0 l 208 0 l 208 142 l 68 142 l 68 274 l 342 274 l 342 132 l 771 132 l 771 422 l 208 422 l 208 564 l 68 564 l 68 836 l 208 836 l 208 976 l 904 976 l 904 836 l 1044 836 l 1044 704 l 771 704 l 771 844 l 340 844 l 340 554 l 904 554 l 904 414 l 1044 414 l 1044 140 z "},"t":{"ha":1110,"x_min":68,"x_max":1044,"o":"m 1044 844 l 763 844 l 763 0 l 349 0 l 349 844 l 68 844 l 68 976 l 1044 976 l 1044 844 z "},"u":{"ha":1110,"x_min":68,"x_max":1044,"o":"m 1044 140 l 904 140 l 904 0 l 208 0 l 208 142 l 68 142 l 68 976 l 342 976 l 342 132 l 772 132 l 772 976 l 1044 976 l 1044 140 z "},"v":{"ha":1110,"x_min":68,"x_max":1044,"o":"m 1044 563 l 904 563 l 904 282 l 763 282 l 763 0 l 349 0 l 349 282 l 208 282 l 208 564 l 68 564 l 68 976 l 342 976 l 342 554 l 482 554 l 482 283 l 631 283 l 631 554 l 772 554 l 772 976 l 1044 976 l 1044 563 z "},"w":{"ha":1110,"x_min":68,"x_max":1044,"o":"m 1044 422 l 904 422 l 904 0 l 629 0 l 631 138 l 482 139 l 482 0 l 208 0 l 208 422 l 68 422 l 68 976 l 342 976 l 343 554 l 479 554 l 483 976 l 631 976 l 628 554 l 769 554 l 771 976 l 1044 976 l 1044 422 z "},"x":{"ha":1110,"x_min":68,"x_max":1044,"o":"m 1044 0 l 771 0 l 771 142 l 631 142 l 631 415 l 482 415 l 482 140 l 340 140 l 340 0 l 68 0 l 68 274 l 210 274 l 210 415 l 347 415 l 349 564 l 208 564 l 208 704 l 68 704 l 68 976 l 342 976 l 342 836 l 482 836 l 482 565 l 631 565 l 631 836 l 772 836 l 772 978 l 1044 978 l 1044 704 l 903 704 l 903 561 l 764 560 l 764 414 l 904 414 l 904 272 l 1044 272 l 1044 0 z "},"y":{"ha":1110,"x_min":68,"x_max":1044,"o":"m 1044 704 l 904 704 l 904 422 l 763 422 l 763 0 l 349 0 l 349 422 l 208 422 l 208 704 l 68 704 l 68 976 l 342 976 l 342 694 l 483 694 l 482 554 l 631 556 l 631 696 l 772 696 l 772 976 l 1044 976 l 1044 704 z "},"z":{"ha":1110,"x_min":68,"x_max":1044,"o":"m 1044 704 l 904 704 l 904 563 l 763 563 l 763 422 l 621 422 l 621 281 l 482 282 l 483 146 l 1044 147 l 1044 0 l 68 0 l 68 274 l 208 274 l 208 414 l 350 414 l 350 556 l 490 556 l 490 697 l 631 699 l 629 832 l 68 829 l 68 976 l 1044 976 l 1044 704 z "},"{":{"ha":1110,"x_min":208,"x_max":904,"o":"m 904 0 l 208 0 l 208 976 l 904 976 l 904 844 l 482 844 l 482 132 l 904 132 l 904 0 z "},"|":{"ha":1110,"x_min":490,"x_max":622,"o":"m 622 0 l 490 0 l 490 976 l 622 976 l 622 0 z "},"}":{"ha":1110,"x_min":208,"x_max":904,"o":"m 904 0 l 208 0 l 208 133 l 631 133 l 631 844 l 208 844 l 208 976 l 904 976 l 904 0 z "},"~":{"ha":1110,"x_min":68,"x_max":1044,"o":"m 1044 563 l 904 563 l 904 422 l 631 422 l 631 564 l 490 564 l 490 704 l 200 704 l 200 422 l 68 422 l 68 836 l 208 836 l 208 976 l 482 976 l 482 836 l 622 836 l 622 696 l 913 696 l 913 976 l 1044 976 l 1044 563 z "},"¡":{"ha":1110,"x_min":68,"x_max":1044,"o":"m 1044 704 l 771 704 l 771 976 l 1044 976 l 1044 704 m 622 282 l 482 282 l 482 140 l 340 140 l 340 0 l 68 0 l 68 274 l 208 274 l 208 414 l 349 414 l 349 554 l 622 554 l 622 282 z "},"¢":{"ha":1110,"x_min":68,"x_max":1044,"o":"m 1044 563 l 771 563 l 771 704 l 340 704 l 340 274 l 772 274 l 772 414 l 1044 414 l 1044 281 l 904 281 l 904 140 l 622 140 l 622 0 l 489 0 l 489 142 l 208 142 l 208 282 l 68 282 l 68 696 l 208 696 l 208 836 l 490 836 l 490 976 l 622 976 l 622 836 l 904 836 l 904 696 l 1044 696 l 1044 563 z "},"£":{"ha":1110,"x_min":68,"x_max":1044,"o":"m 1044 704 l 913 704 l 913 836 l 904 836 l 904 844 l 482 844 l 482 554 l 763 554 l 763 422 l 482 422 l 482 132 l 1044 132 l 1044 0 l 68 0 l 68 133 l 208 133 l 208 422 l 68 422 l 68 556 l 208 556 l 208 836 l 349 836 l 349 976 l 904 976 l 904 844 l 913 844 l 913 836 l 1044 836 l 1044 704 z "},"¥":{"ha":1110,"x_min":68,"x_max":1044,"o":"m 1044 704 l 903 704 l 903 421 l 764 421 l 764 272 l 1044 274 l 1044 140 l 763 140 l 763 0 l 349 0 l 349 142 l 68 142 l 68 274 l 347 272 l 349 422 l 208 422 l 208 704 l 68 704 l 68 976 l 342 976 l 342 694 l 483 694 l 482 554 l 631 556 l 631 696 l 772 696 l 772 976 l 1044 976 l 1044 704 z "},"¦":{"ha":1110,"x_min":490,"x_max":622,"o":"m 622 563 l 490 563 l 490 976 l 622 976 l 622 563 m 622 0 l 490 0 l 490 414 l 622 414 l 622 0 z "},"§":{"ha":1110,"x_min":68,"x_max":1044,"o":"m 1044 140 l 904 140 l 904 0 l 208 0 l 208 147 l 771 147 l 771 274 l 208 274 l 208 422 l 68 422 l 68 836 l 208 836 l 208 976 l 904 976 l 904 831 l 342 831 l 342 701 l 904 701 l 904 554 l 1044 554 l 1044 140 m 763 422 l 763 554 l 350 554 l 350 422 l 763 422 z "},"¨":{"ha":1110,"x_min":208,"x_max":904,"o":"m 904 704 l 631 704 l 631 976 l 904 976 l 904 704 m 482 704 l 208 704 l 208 976 l 482 976 l 482 704 z "},"©":{"ha":1110,"x_min":68,"x_max":1044,"o":"m 1044 140 l 904 140 l 904 0 l 208 0 l 208 142 l 68 142 l 68 836 l 208 836 l 208 976 l 904 976 l 904 836 l 1044 836 l 1044 140 m 904 140 l 904 836 l 208 836 l 208 140 l 904 140 m 763 563 l 489 563 l 490 696 l 763 696 l 763 563 m 763 282 l 490 282 l 489 414 l 763 414 l 763 282 m 490 556 l 489 422 l 349 422 l 349 556 l 490 556 z "},"ª":{"ha":1110,"x_min":208,"x_max":764,"o":"m 622 844 l 350 844 l 350 976 l 622 976 l 622 844 m 764 282 l 349 282 l 349 422 l 208 422 l 208 696 l 629 696 l 629 836 l 764 836 l 764 282 m 622 422 l 622 554 l 349 554 l 349 422 l 622 422 z "},"«":{"ha":1110,"x_min":68,"x_max":904,"o":"m 904 704 l 772 704 l 772 696 l 763 696 l 763 563 l 631 561 l 631 696 l 763 696 l 763 704 l 772 704 l 772 836 l 904 836 l 904 704 m 904 142 l 771 142 l 771 274 l 764 274 l 764 282 l 631 282 l 631 414 l 624 414 l 624 422 l 490 422 l 490 556 l 624 556 l 624 422 l 631 422 l 631 414 l 764 414 l 764 282 l 771 282 l 771 274 l 904 274 l 904 142 m 482 704 l 350 704 l 350 696 l 340 696 l 340 563 l 208 561 l 208 696 l 340 696 l 340 704 l 350 704 l 350 836 l 482 836 l 482 704 m 482 142 l 349 142 l 349 274 l 342 274 l 342 282 l 208 282 l 208 414 l 201 414 l 201 422 l 68 422 l 68 556 l 201 556 l 201 422 l 208 422 l 208 414 l 342 414 l 342 282 l 349 282 l 349 274 l 482 274 l 482 142 z "},"®":{"ha":1110,"x_min":68,"x_max":1044,"o":"m 1044 140 l 904 140 l 904 0 l 208 0 l 208 142 l 68 142 l 68 836 l 208 836 l 208 976 l 904 976 l 904 836 l 1044 836 l 1044 140 m 904 140 l 904 836 l 208 836 l 208 140 l 904 140 m 763 282 l 631 282 l 629 414 l 622 414 l 622 421 l 482 421 l 482 282 l 349 282 l 349 696 l 622 696 l 622 421 l 629 421 l 629 414 l 763 414 l 763 282 z "},"°":{"ha":1110,"x_min":208,"x_max":904,"o":"m 904 422 l 763 422 l 763 282 l 349 282 l 349 422 l 208 422 l 208 836 l 349 836 l 349 976 l 764 976 l 764 836 l 904 836 l 904 422 m 764 422 l 764 836 l 349 836 l 349 422 l 764 422 z "},"±":{"ha":1110,"x_min":208,"x_max":904,"o":"m 904 563 l 622 563 l 622 282 l 490 282 l 490 564 l 208 564 l 208 696 l 490 696 l 490 976 l 622 976 l 622 696 l 904 696 l 904 563 m 904 0 l 208 0 l 208 132 l 904 132 l 904 0 z "},"²":{"ha":1110,"x_min":208,"x_max":904,"o":"m 904 696 l 763 696 l 763 550 l 625 551 l 624 414 l 904 414 l 904 282 l 208 282 l 208 414 l 350 414 l 350 556 l 490 556 l 490 697 l 622 697 l 624 844 l 349 844 l 349 836 l 340 836 l 340 704 l 208 704 l 208 836 l 340 836 l 340 844 l 349 844 l 349 976 l 764 976 l 764 836 l 904 836 l 904 696 z "},"³":{"ha":1110,"x_min":208,"x_max":904,"o":"m 904 422 l 763 422 l 763 282 l 349 282 l 349 415 l 342 414 l 342 422 l 208 422 l 208 554 l 342 554 l 342 422 l 349 422 l 349 415 l 629 414 l 631 564 l 490 564 l 490 697 l 629 697 l 631 844 l 349 844 l 349 836 l 340 836 l 340 704 l 208 704 l 208 836 l 340 836 l 340 844 l 349 844 l 349 976 l 764 976 l 764 836 l 903 836 l 903 703 l 764 701 l 764 554 l 904 554 l 904 422 z "},"´":{"ha":1110,"x_min":349,"x_max":764,"o":"m 764 844 l 631 844 l 631 836 l 622 836 l 622 703 l 490 703 l 490 696 l 482 696 l 482 563 l 349 563 l 349 696 l 482 696 l 482 703 l 490 703 l 490 836 l 622 836 l 622 844 l 631 844 l 631 976 l 764 976 l 764 844 z "},"µ":{"ha":1110,"x_min":68,"x_max":1044,"o":"m 1044 282 l 904 282 l 904 142 l 489 142 l 489 274 l 482 274 l 482 279 l 340 279 l 340 0 l 68 0 l 68 976 l 342 976 l 342 414 l 482 414 l 482 279 l 489 279 l 489 274 l 772 274 l 772 976 l 1044 976 l 1044 282 z "},"¶":{"ha":1110,"x_min":68,"x_max":1044,"o":"m 1044 0 l 897 0 l 899 844 l 776 844 l 778 0 l 631 0 l 631 282 l 208 282 l 208 422 l 68 422 l 68 836 l 208 836 l 208 976 l 1044 976 l 1044 0 z "},"·":{"ha":1110,"x_min":349,"x_max":622,"o":"m 622 282 l 349 282 l 349 696 l 622 696 l 622 282 z "},"∙":{"ha":1110,"x_min":349,"x_max":622,"o":"m 622 282 l 349 282 l 349 696 l 622 696 l 622 282 z "},"¸":{"ha":1110,"x_min":349,"x_max":763,"o":"m 763 140 l 628 140 l 628 135 l 622 135 l 622 0 l 490 0 l 490 133 l 622 135 l 622 140 l 628 140 l 628 272 l 622 272 l 622 282 l 349 282 l 349 554 l 482 554 l 482 414 l 622 414 l 622 282 l 628 282 l 628 272 l 763 272 l 763 140 z "},"¹":{"ha":1110,"x_min":208,"x_max":763,"o":"m 763 282 l 208 282 l 208 414 l 349 414 l 349 704 l 208 704 l 208 836 l 349 836 l 349 976 l 622 976 l 622 414 l 763 414 l 763 282 z "},"º":{"ha":1110,"x_min":208,"x_max":764,"o":"m 764 422 l 622 422 l 622 282 l 349 282 l 349 422 l 208 422 l 208 836 l 349 836 l 349 976 l 622 976 l 622 836 l 764 836 l 764 422 m 622 422 l 622 836 l 349 836 l 349 422 l 622 422 z "},"»":{"ha":1110,"x_min":208,"x_max":1044,"o":"m 904 561 l 772 561 l 772 696 l 763 696 l 763 703 l 631 703 l 631 836 l 763 836 l 763 703 l 772 703 l 772 696 l 904 696 l 904 561 m 1044 422 l 911 422 l 911 414 l 904 414 l 904 282 l 771 282 l 771 274 l 764 274 l 764 140 l 631 140 l 631 274 l 764 274 l 764 282 l 771 282 l 771 414 l 904 414 l 904 422 l 911 422 l 911 556 l 1044 556 l 1044 422 m 482 561 l 350 561 l 350 696 l 340 696 l 340 703 l 208 703 l 208 836 l 340 836 l 340 703 l 350 703 l 350 696 l 482 696 l 482 561 m 622 422 l 489 422 l 489 414 l 482 414 l 482 282 l 349 282 l 349 274 l 342 274 l 342 140 l 208 140 l 208 274 l 342 274 l 342 282 l 349 282 l 349 414 l 482 414 l 482 422 l 489 422 l 489 556 l 622 556 l 622 422 z "},"¼":{"ha":1110,"x_min":68,"x_max":1044,"o":"m 1044 0 l 913 0 l 913 142 l 631 142 l 629 413 l 624 413 l 624 421 l 490 421 l 490 414 l 482 414 l 482 281 l 350 281 l 350 274 l 340 274 l 340 140 l 208 140 l 208 133 l 200 133 l 200 0 l 68 0 l 68 133 l 200 133 l 200 140 l 208 140 l 208 274 l 340 274 l 340 281 l 350 281 l 350 414 l 482 414 l 482 421 l 490 421 l 490 556 l 622 556 l 622 563 l 631 563 l 631 696 l 763 696 l 763 703 l 772 703 l 772 836 l 904 836 l 904 844 l 913 844 l 913 976 l 1044 976 l 1044 844 l 913 844 l 913 836 l 904 836 l 904 703 l 772 703 l 772 696 l 763 696 l 763 563 l 631 563 l 631 556 l 622 556 l 624 421 l 629 421 l 629 413 l 765 413 l 764 261 l 913 261 l 913 414 l 1044 414 l 1044 0 m 342 563 l 208 563 l 208 976 l 342 976 l 342 563 z "},"½":{"ha":1110,"x_min":68,"x_max":1044,"o":"m 342 563 l 208 563 l 208 976 l 342 976 l 342 563 m 1044 844 l 913 844 l 913 836 l 904 836 l 904 703 l 772 704 l 772 696 l 764 696 l 764 554 l 904 554 l 904 414 l 1044 414 l 1044 281 l 904 279 l 906 132 l 1044 132 l 1044 0 l 632 0 l 632 126 l 769 126 l 771 282 l 631 282 l 629 421 l 490 421 l 490 414 l 482 414 l 482 281 l 350 281 l 350 274 l 340 274 l 340 140 l 208 140 l 208 133 l 200 133 l 200 0 l 68 0 l 68 133 l 200 133 l 200 140 l 208 140 l 208 274 l 340 274 l 340 281 l 350 281 l 350 414 l 482 414 l 482 421 l 490 421 l 490 556 l 631 556 l 631 696 l 764 696 l 764 704 l 772 704 l 772 836 l 904 836 l 904 844 l 913 844 l 913 976 l 1044 976 l 1044 844 m 764 422 l 764 554 l 631 554 l 631 422 l 764 422 m 904 282 l 904 414 l 771 414 l 771 282 l 904 282 z "},"¾":{"ha":1110,"x_min":68,"x_max":1044,"o":"m 1044 0 l 913 0 l 913 142 l 631 142 l 629 413 l 624 413 l 624 419 l 490 421 l 490 414 l 482 414 l 482 281 l 350 281 l 350 274 l 340 274 l 340 140 l 208 140 l 208 133 l 200 133 l 200 0 l 68 0 l 68 133 l 200 133 l 200 140 l 208 140 l 208 274 l 340 274 l 340 281 l 350 281 l 350 414 l 482 414 l 482 421 l 490 421 l 490 556 l 622 556 l 622 563 l 631 563 l 631 696 l 763 696 l 763 703 l 772 703 l 772 836 l 904 836 l 904 844 l 913 844 l 913 976 l 1044 976 l 1044 844 l 913 844 l 913 836 l 904 836 l 904 703 l 772 703 l 772 696 l 763 696 l 763 563 l 631 563 l 631 556 l 622 556 l 624 419 l 629 419 l 629 413 l 765 413 l 765 276 l 913 275 l 913 414 l 1044 414 l 1044 0 m 482 703 l 340 703 l 340 450 l 208 450 l 208 443 l 200 443 l 200 310 l 68 310 l 68 443 l 200 443 l 200 450 l 208 450 l 207 592 l 68 592 l 68 724 l 347 722 l 347 836 l 342 836 l 342 846 l 68 844 l 68 976 l 342 976 l 342 846 l 347 846 l 347 836 l 482 836 l 482 703 z "},"¿":{"ha":1110,"x_min":68,"x_max":1044,"o":"m 622 844 l 349 844 l 349 976 l 622 976 l 622 844 m 1044 140 l 904 140 l 904 0 l 208 0 l 208 142 l 68 142 l 68 414 l 208 414 l 208 556 l 349 556 l 349 696 l 622 696 l 622 422 l 340 422 l 340 132 l 772 132 l 772 274 l 1044 274 l 1044 140 z "},"À":{"ha":1110,"x_min":68,"x_max":1044,"o":"m 1044 0 l 771 0 l 771 140 l 340 140 l 340 0 l 68 0 l 68 556 l 208 556 l 208 689 l 486 688 l 489 836 l 482 836 l 482 844 l 349 844 l 349 976 l 482 976 l 482 844 l 489 844 l 489 836 l 622 836 l 622 696 l 904 696 l 904 554 l 1044 554 l 1044 0 m 763 282 l 763 554 l 349 554 l 349 282 l 763 282 z "},"Á":{"ha":1110,"x_min":68,"x_max":1044,"o":"m 1044 0 l 771 0 l 771 140 l 340 140 l 340 0 l 68 0 l 68 556 l 208 556 l 208 696 l 490 696 l 490 836 l 625 836 l 624 843 l 631 843 l 631 976 l 763 976 l 763 843 l 631 843 l 631 836 l 625 836 l 625 699 l 903 699 l 904 554 l 1044 554 l 1044 0 m 763 282 l 763 554 l 349 554 l 349 282 l 763 282 z "},"Â":{"ha":1110,"x_min":68,"x_max":1044,"o":"m 1044 0 l 771 0 l 771 140 l 340 140 l 340 0 l 68 0 l 68 556 l 208 556 l 208 696 l 350 696 l 350 836 l 490 836 l 490 976 l 622 976 l 622 836 l 764 836 l 764 696 l 904 696 l 904 554 l 1044 554 l 1044 0 m 622 704 l 622 836 l 490 836 l 490 704 l 622 704 m 763 282 l 763 554 l 349 554 l 349 282 l 763 282 z "},"Ã":{"ha":1110,"x_min":68,"x_max":1044,"o":"m 1044 0 l 771 0 l 771 140 l 340 140 l 340 0 l 68 0 l 68 556 l 208 556 l 208 696 l 350 696 l 350 836 l 490 836 l 490 976 l 624 976 l 624 838 l 764 838 l 764 842 l 772 842 l 772 976 l 903 976 l 903 843 l 772 842 l 772 838 l 764 838 l 764 696 l 904 696 l 904 554 l 1044 554 l 1044 0 m 622 704 l 622 836 l 490 836 l 490 704 l 622 704 m 763 282 l 763 554 l 349 554 l 349 282 l 763 282 z "},"Ä":{"ha":1110,"x_min":68,"x_max":1044,"o":"m 764 817 l 631 817 l 631 949 l 764 949 l 764 817 m 482 817 l 349 817 l 349 949 l 482 949 l 482 817 m 1044 0 l 771 0 l 771 140 l 340 140 l 340 0 l 68 0 l 68 554 l 208 554 l 208 696 l 904 696 l 904 554 l 1044 554 l 1044 0 m 763 282 l 763 554 l 349 554 l 349 282 l 763 282 z "},"Å":{"ha":1110,"x_min":68,"x_max":1044,"o":"m 1044 0 l 771 0 l 771 140 l 340 140 l 340 0 l 68 0 l 68 556 l 208 556 l 208 696 l 349 696 l 349 976 l 764 976 l 764 696 l 904 696 l 904 554 l 1044 554 l 1044 0 m 622 704 l 622 836 l 490 836 l 490 704 l 622 704 m 763 282 l 763 554 l 349 554 l 349 282 l 763 282 z "},"Æ":{"ha":1110,"x_min":68,"x_max":1044,"o":"m 1044 0 l 476 0 l 476 282 l 343 282 l 340 0 l 68 0 l 68 556 l 208 556 l 208 836 l 349 836 l 349 976 l 1044 976 l 1044 844 l 764 844 l 764 554 l 1044 554 l 1044 422 l 764 422 l 764 132 l 1044 132 l 1044 0 m 482 422 l 482 696 l 349 696 l 349 422 l 482 422 z "},"Ç":{"ha":1110,"x_min":68,"x_max":1044,"o":"m 1044 704 l 771 704 l 771 844 l 340 844 l 340 414 l 772 414 l 772 556 l 1044 556 l 1044 422 l 904 422 l 904 281 l 622 281 l 622 0 l 350 0 l 350 133 l 486 133 l 486 282 l 208 282 l 208 422 l 68 422 l 68 836 l 208 836 l 208 976 l 904 976 l 904 836 l 1044 836 l 1044 704 z "},"È":{"ha":1110,"x_min":65,"x_max":1044,"o":"m 1044 0 l 68 0 l 65 688 l 486 688 l 489 836 l 482 836 l 482 844 l 349 844 l 349 976 l 482 976 l 482 844 l 489 844 l 489 836 l 622 836 l 622 696 l 1044 696 l 1044 550 l 342 550 l 342 428 l 903 428 l 903 267 l 342 268 l 342 146 l 1044 146 l 1044 0 z "},"É":{"ha":1110,"x_min":68,"x_max":1044,"o":"m 1044 549 l 342 549 l 342 428 l 903 428 l 903 267 l 342 268 l 342 146 l 1044 146 l 1044 0 l 68 0 l 68 696 l 490 696 l 490 836 l 625 836 l 625 843 l 631 843 l 631 976 l 763 976 l 763 843 l 631 843 l 631 836 l 625 836 l 625 696 l 1044 696 l 1044 549 z "},"Ê":{"ha":1110,"x_min":68,"x_max":1044,"o":"m 1044 0 l 68 0 l 68 696 l 350 696 l 350 836 l 490 836 l 490 976 l 622 976 l 622 836 l 764 836 l 764 696 l 1044 696 l 1044 550 l 342 550 l 342 428 l 903 428 l 903 267 l 342 268 l 342 146 l 1044 146 l 1044 0 m 622 704 l 622 836 l 490 836 l 490 704 l 622 704 z "},"Ë":{"ha":1110,"x_min":68,"x_max":1044,"o":"m 764 844 l 631 844 l 631 976 l 764 976 l 764 844 m 482 844 l 349 844 l 349 976 l 482 976 l 482 844 m 1044 549 l 342 549 l 342 428 l 903 428 l 903 267 l 342 268 l 342 146 l 1044 146 l 1044 0 l 68 0 l 68 696 l 1044 696 l 1044 549 z "},"Ì":{"ha":1110,"x_min":208,"x_max":904,"o":"m 904 0 l 208 0 l 208 133 l 349 133 l 349 564 l 208 564 l 208 693 l 486 692 l 489 836 l 482 836 l 482 844 l 349 844 l 349 976 l 482 976 l 482 844 l 489 844 l 489 836 l 622 836 l 622 696 l 904 696 l 904 563 l 763 563 l 763 132 l 904 132 l 904 0 z "},"Í":{"ha":1110,"x_min":208,"x_max":904,"o":"m 904 0 l 208 0 l 208 133 l 349 133 l 349 564 l 208 564 l 208 696 l 490 696 l 490 836 l 625 836 l 625 843 l 631 843 l 631 976 l 763 976 l 763 843 l 631 843 l 631 836 l 625 836 l 625 704 l 903 704 l 904 563 l 763 563 l 763 132 l 904 132 l 904 0 z "},"Î":{"ha":1110,"x_min":208,"x_max":904,"o":"m 904 0 l 208 0 l 208 133 l 349 133 l 349 564 l 208 564 l 208 696 l 350 696 l 350 836 l 490 836 l 490 976 l 622 976 l 622 836 l 764 836 l 764 696 l 904 696 l 904 563 l 763 563 l 763 132 l 904 132 l 904 0 m 622 704 l 622 836 l 490 836 l 490 704 l 622 704 z "},"Ï":{"ha":1110,"x_min":208,"x_max":904,"o":"m 764 844 l 631 844 l 631 976 l 764 976 l 764 844 m 482 844 l 349 844 l 349 976 l 482 976 l 482 844 m 904 0 l 208 0 l 208 133 l 349 133 l 349 563 l 208 563 l 208 696 l 904 696 l 904 563 l 763 563 l 763 132 l 904 132 l 904 0 z "},"Ð":{"ha":1110,"x_min":68,"x_max":1044,"o":"m 1044 140 l 904 140 l 904 0 l 208 0 l 208 422 l 68 422 l 68 556 l 208 556 l 208 976 l 904 976 l 904 836 l 1044 836 l 1044 140 m 764 140 l 764 836 l 490 836 l 490 564 l 629 564 l 631 415 l 490 414 l 490 140 l 764 140 z "},"Ñ":{"ha":1110,"x_min":68,"x_max":1044,"o":"m 1044 0 l 771 0 l 771 142 l 631 142 l 631 282 l 764 282 l 764 696 l 622 696 l 622 836 l 490 836 l 490 696 l 350 696 l 350 836 l 490 836 l 490 976 l 624 976 l 624 838 l 765 838 l 765 843 l 772 843 l 772 976 l 903 976 l 903 843 l 772 843 l 772 838 l 765 838 l 765 696 l 1044 696 l 1044 0 m 631 282 l 489 282 l 488 421 l 342 421 l 340 0 l 68 0 l 68 696 l 349 696 l 349 564 l 490 564 l 490 422 l 631 422 l 631 282 z "},"Ò":{"ha":1110,"x_min":68,"x_max":1044,"o":"m 1044 140 l 904 140 l 904 0 l 208 0 l 208 142 l 68 142 l 68 556 l 208 556 l 208 693 l 486 693 l 489 836 l 482 836 l 482 844 l 349 844 l 349 976 l 482 976 l 482 844 l 489 844 l 489 836 l 622 836 l 622 696 l 904 696 l 904 554 l 1044 554 l 1044 140 m 764 140 l 764 554 l 349 554 l 349 140 l 764 140 z "},"Ó":{"ha":1110,"x_min":68,"x_max":1044,"o":"m 1044 140 l 904 140 l 904 0 l 208 0 l 208 142 l 68 142 l 68 556 l 208 556 l 208 696 l 490 696 l 490 836 l 624 836 l 624 843 l 631 843 l 631 976 l 763 976 l 763 843 l 631 843 l 631 836 l 624 836 l 624 697 l 904 697 l 904 554 l 1044 554 l 1044 140 m 764 140 l 764 554 l 349 554 l 349 140 l 764 140 z "},"Ô":{"ha":1110,"x_min":68,"x_max":1044,"o":"m 1044 140 l 904 140 l 904 0 l 208 0 l 208 142 l 68 142 l 68 556 l 208 556 l 208 696 l 350 696 l 350 836 l 490 836 l 490 976 l 622 976 l 622 836 l 764 836 l 764 696 l 904 696 l 904 554 l 1044 554 l 1044 140 m 622 704 l 622 836 l 490 836 l 490 704 l 622 704 m 764 140 l 764 554 l 349 554 l 349 140 l 764 140 z "},"Õ":{"ha":1110,"x_min":68,"x_max":1044,"o":"m 1044 140 l 904 140 l 904 0 l 208 0 l 208 142 l 68 142 l 68 556 l 208 556 l 208 696 l 350 696 l 350 836 l 490 836 l 490 976 l 624 976 l 622 838 l 764 838 l 764 843 l 772 843 l 772 976 l 903 976 l 903 843 l 772 843 l 772 838 l 764 838 l 764 696 l 904 696 l 904 554 l 1044 554 l 1044 140 m 622 704 l 622 836 l 490 836 l 490 704 l 622 704 m 764 140 l 764 554 l 349 554 l 349 140 l 764 140 z "},"Ö":{"ha":1110,"x_min":68,"x_max":1044,"o":"m 764 844 l 631 844 l 631 976 l 764 976 l 764 844 m 482 844 l 349 844 l 349 976 l 482 976 l 482 844 m 1044 140 l 904 140 l 904 0 l 208 0 l 208 142 l 68 142 l 68 554 l 208 554 l 208 696 l 904 696 l 904 554 l 1044 554 l 1044 140 m 764 140 l 764 554 l 349 554 l 349 140 l 764 140 z "},"×":{"ha":1110,"x_min":68,"x_max":1044,"o":"m 1044 844 l 913 844 l 913 836 l 904 836 l 904 703 l 772 703 l 772 696 l 763 696 l 763 561 l 631 561 l 631 556 l 624 556 l 624 421 l 628 421 l 628 414 l 764 414 l 764 282 l 771 282 l 771 272 l 904 272 l 904 142 l 913 142 l 913 132 l 1044 132 l 1044 0 l 913 0 l 913 132 l 904 132 l 904 142 l 771 142 l 771 272 l 764 272 l 764 282 l 629 282 l 628 414 l 624 414 l 624 421 l 488 421 l 488 414 l 482 414 l 482 281 l 350 281 l 350 274 l 340 274 l 340 140 l 208 140 l 208 133 l 200 133 l 200 0 l 68 0 l 68 133 l 200 133 l 200 140 l 208 140 l 208 274 l 340 274 l 340 281 l 350 281 l 350 414 l 482 414 l 482 421 l 488 421 l 489 556 l 482 556 l 482 564 l 349 564 l 349 694 l 342 694 l 342 704 l 208 704 l 208 836 l 200 836 l 200 844 l 68 844 l 68 976 l 200 976 l 200 844 l 208 844 l 208 836 l 342 836 l 342 704 l 349 704 l 349 694 l 483 694 l 482 564 l 489 564 l 489 556 l 624 556 l 624 561 l 631 561 l 631 696 l 763 696 l 763 703 l 772 703 l 772 836 l 904 836 l 904 844 l 913 844 l 913 976 l 1044 976 l 1044 844 z "},"Ø":{"ha":1110,"x_min":68,"x_max":1044,"o":"m 1044 140 l 904 140 l 904 0 l 349 0 l 347 139 l 207 139 l 207 139 l 200 139 l 200 0 l 68 0 l 68 140 l 200 139 l 200 139 l 207 139 l 207 282 l 68 282 l 68 836 l 208 836 l 208 976 l 764 976 l 764 838 l 913 838 l 913 976 l 1044 976 l 1043 832 l 906 832 l 906 708 l 1044 708 l 1044 140 m 763 703 l 763 836 l 349 836 l 349 422 l 482 422 l 482 563 l 622 563 l 622 703 l 763 703 m 764 140 l 764 554 l 631 554 l 631 414 l 490 414 l 490 274 l 350 274 l 350 140 l 764 140 z "},"Ù":{"ha":1110,"x_min":68,"x_max":1044,"o":"m 622 704 l 489 704 l 489 836 l 482 836 l 482 844 l 349 844 l 349 976 l 482 976 l 482 844 l 489 844 l 489 836 l 622 836 l 622 704 m 1044 140 l 904 140 l 904 0 l 208 0 l 208 142 l 68 142 l 68 696 l 342 696 l 342 132 l 772 132 l 772 696 l 1044 696 l 1044 140 z "},"Ú":{"ha":1110,"x_min":68,"x_max":1044,"o":"m 764 844 l 631 844 l 631 836 l 622 836 l 622 704 l 490 704 l 490 836 l 622 836 l 622 844 l 631 844 l 631 976 l 764 976 l 764 844 m 1044 140 l 904 140 l 904 0 l 208 0 l 208 142 l 68 142 l 68 696 l 342 696 l 342 132 l 772 132 l 772 696 l 1044 696 l 1044 140 z "},"Û":{"ha":1110,"x_min":68,"x_max":1044,"o":"m 1044 140 l 904 140 l 904 0 l 208 0 l 208 142 l 68 142 l 68 696 l 350 696 l 350 836 l 490 836 l 490 976 l 622 976 l 622 836 q 764 836 754 836 l 764 696 l 1044 696 l 1044 140 m 764 140 l 764 696 l 622 696 l 622 836 l 490 836 l 490 696 l 349 696 l 349 140 l 764 140 z "},"Ü":{"ha":1110,"x_min":68,"x_max":1044,"o":"m 764 844 l 631 844 l 631 976 l 764 976 l 764 844 m 482 844 l 349 844 l 349 976 l 482 976 l 482 844 m 1044 140 l 904 140 l 904 0 l 208 0 l 208 142 l 68 142 l 68 696 l 342 696 l 342 132 l 772 132 l 772 696 l 1044 696 l 1044 140 z "},"Ý":{"ha":1110,"x_min":68,"x_max":1044,"o":"m 764 844 l 631 844 l 631 836 l 622 836 l 622 704 l 490 704 l 490 836 l 622 836 l 622 844 l 631 844 l 631 976 l 764 976 l 764 844 m 1044 422 l 904 422 l 904 281 l 763 281 l 763 0 l 349 0 l 349 282 l 208 282 l 208 422 l 68 422 l 68 696 l 342 696 l 342 414 l 772 414 l 772 696 l 1044 696 l 1044 422 z "},"Þ":{"ha":1110,"x_min":68,"x_max":1044,"o":"m 1044 282 l 904 282 l 904 140 l 340 140 l 340 0 l 68 0 l 68 976 l 342 976 l 342 836 l 904 836 l 904 696 l 1044 696 l 1044 282 m 764 282 l 764 696 l 349 696 l 349 282 l 764 282 z "},"ß":{"ha":1110,"x_min":68,"x_max":1044,"o":"m 1044 140 l 904 140 l 904 0 l 490 0 l 490 133 l 771 133 l 771 422 l 340 422 l 340 0 l 68 0 l 68 836 l 208 836 l 208 976 l 904 976 l 904 836 l 1044 836 l 1042 558 l 903 558 l 906 414 l 1044 414 l 1044 140 m 763 563 l 763 836 l 349 836 l 349 563 l 763 563 z "},"à":{"ha":1110,"x_min":68,"x_max":1044,"o":"m 1044 0 l 771 0 l 771 140 l 340 140 l 340 0 l 68 0 l 68 556 l 208 556 l 208 689 l 486 688 l 489 836 l 482 836 l 482 844 l 349 844 l 349 976 l 482 976 l 482 844 l 489 844 l 489 836 l 622 836 l 622 696 l 904 696 l 904 554 l 1044 554 l 1044 0 m 763 282 l 763 554 l 349 554 l 349 282 l 763 282 z "},"á":{"ha":1110,"x_min":68,"x_max":1044,"o":"m 1044 0 l 771 0 l 771 140 l 340 140 l 340 0 l 68 0 l 68 556 l 208 556 l 208 696 l 490 696 l 490 836 l 625 836 l 624 843 l 631 843 l 631 976 l 763 976 l 763 843 l 631 843 l 631 836 l 625 836 l 625 699 l 903 699 l 904 554 l 1044 554 l 1044 0 m 763 282 l 763 554 l 349 554 l 349 282 l 763 282 z "},"â":{"ha":1110,"x_min":68,"x_max":1044,"o":"m 1044 0 l 771 0 l 771 140 l 340 140 l 340 0 l 68 0 l 68 556 l 208 556 l 208 696 l 350 696 l 350 836 l 490 836 l 490 976 l 622 976 l 622 836 l 764 836 l 764 696 l 904 696 l 904 554 l 1044 554 l 1044 0 m 622 704 l 622 836 l 490 836 l 490 704 l 622 704 m 763 282 l 763 554 l 349 554 l 349 282 l 763 282 z "},"ã":{"ha":1110,"x_min":68,"x_max":1044,"o":"m 1044 0 l 771 0 l 771 140 l 340 140 l 340 0 l 68 0 l 68 556 l 208 556 l 208 696 l 350 696 l 350 836 l 490 836 l 490 976 l 624 976 l 624 838 l 764 838 l 764 842 l 772 842 l 772 976 l 903 976 l 903 843 l 772 842 l 772 838 l 764 838 l 764 696 l 904 696 l 904 554 l 1044 554 l 1044 0 m 622 704 l 622 836 l 490 836 l 490 704 l 622 704 m 763 282 l 763 554 l 349 554 l 349 282 l 763 282 z "},"ä":{"ha":1110,"x_min":68,"x_max":1044,"o":"m 764 817 l 631 817 l 631 949 l 764 949 l 764 817 m 482 817 l 349 817 l 349 949 l 482 949 l 482 817 m 1044 0 l 771 0 l 771 140 l 340 140 l 340 0 l 68 0 l 68 554 l 208 554 l 208 696 l 904 696 l 904 554 l 1044 554 l 1044 0 m 763 282 l 763 554 l 349 554 l 349 282 l 763 282 z "},"å":{"ha":1110,"x_min":68,"x_max":1044,"o":"m 1044 0 l 771 0 l 771 140 l 340 140 l 340 0 l 68 0 l 68 556 l 208 556 l 208 696 l 349 696 l 349 976 l 764 976 l 764 696 l 904 696 l 904 554 l 1044 554 l 1044 0 m 622 704 l 622 836 l 490 836 l 490 704 l 622 704 m 763 282 l 763 554 l 349 554 l 349 282 l 763 282 z "},"æ":{"ha":1110,"x_min":68,"x_max":1044,"o":"m 1044 0 l 476 0 l 476 282 l 343 282 l 340 0 l 68 0 l 68 556 l 208 556 l 208 836 l 349 836 l 349 976 l 1044 976 l 1044 844 l 764 844 l 764 554 l 1044 554 l 1044 422 l 764 422 l 764 132 l 1044 132 l 1044 0 m 482 422 l 482 696 l 349 696 l 349 422 l 482 422 z "},"ç":{"ha":1110,"x_min":68,"x_max":1044,"o":"m 1044 704 l 771 704 l 771 844 l 340 844 l 340 414 l 772 414 l 772 556 l 1044 556 l 1044 422 l 904 422 l 904 281 l 622 281 l 622 0 l 350 0 l 350 133 l 486 133 l 486 282 l 208 282 l 208 422 l 68 422 l 68 836 l 208 836 l 208 976 l 904 976 l 904 836 l 1044 836 l 1044 704 z "},"è":{"ha":1110,"x_min":65,"x_max":1044,"o":"m 1044 0 l 68 0 l 65 688 l 486 688 l 489 836 l 482 836 l 482 844 l 349 844 l 349 976 l 482 976 l 482 844 l 489 844 l 489 836 l 622 836 l 622 696 l 1044 696 l 1044 550 l 342 550 l 342 428 l 903 428 l 903 267 l 342 268 l 342 146 l 1044 146 l 1044 0 z "},"é":{"ha":1110,"x_min":68,"x_max":1044,"o":"m 1044 549 l 342 549 l 342 428 l 903 428 l 903 267 l 342 268 l 342 146 l 1044 146 l 1044 0 l 68 0 l 68 696 l 490 696 l 490 836 l 625 836 l 625 843 l 631 843 l 631 976 l 763 976 l 763 843 l 631 843 l 631 836 l 625 836 l 625 696 l 1044 696 l 1044 549 z "},"ê":{"ha":1110,"x_min":68,"x_max":1044,"o":"m 1044 0 l 68 0 l 68 696 l 350 696 l 350 836 l 490 836 l 490 976 l 622 976 l 622 836 l 764 836 l 764 696 l 1044 696 l 1044 550 l 342 550 l 342 428 l 903 428 l 903 267 l 342 268 l 342 146 l 1044 146 l 1044 0 m 622 704 l 622 836 l 490 836 l 490 704 l 622 704 z "},"ë":{"ha":1110,"x_min":68,"x_max":1044,"o":"m 764 844 l 631 844 l 631 976 l 764 976 l 764 844 m 482 844 l 349 844 l 349 976 l 482 976 l 482 844 m 1044 549 l 342 549 l 342 428 l 903 428 l 903 267 l 342 268 l 342 146 l 1044 146 l 1044 0 l 68 0 l 68 696 l 1044 696 l 1044 549 z "},"ì":{"ha":1110,"x_min":208,"x_max":904,"o":"m 904 0 l 208 0 l 208 133 l 349 133 l 349 564 l 208 564 l 208 693 l 486 692 l 489 836 l 482 836 l 482 844 l 349 844 l 349 976 l 482 976 l 482 844 l 489 844 l 489 836 l 622 836 l 622 696 l 904 696 l 904 563 l 763 563 l 763 132 l 904 132 l 904 0 z "},"í":{"ha":1110,"x_min":208,"x_max":904,"o":"m 904 0 l 208 0 l 208 133 l 349 133 l 349 564 l 208 564 l 208 696 l 490 696 l 490 836 l 625 836 l 625 843 l 631 843 l 631 976 l 763 976 l 763 843 l 631 843 l 631 836 l 625 836 l 625 704 l 903 704 l 904 563 l 763 563 l 763 132 l 904 132 l 904 0 z "},"î":{"ha":1110,"x_min":208,"x_max":904,"o":"m 904 0 l 208 0 l 208 133 l 349 133 l 349 564 l 208 564 l 208 696 l 350 696 l 350 836 l 490 836 l 490 976 l 622 976 l 622 836 l 764 836 l 764 696 l 904 696 l 904 563 l 763 563 l 763 132 l 904 132 l 904 0 m 622 704 l 622 836 l 490 836 l 490 704 l 622 704 z "},"ï":{"ha":1110,"x_min":208,"x_max":904,"o":"m 764 844 l 631 844 l 631 976 l 764 976 l 764 844 m 482 844 l 349 844 l 349 976 l 482 976 l 482 844 m 904 0 l 208 0 l 208 133 l 349 133 l 349 563 l 208 563 l 208 696 l 904 696 l 904 563 l 763 563 l 763 132 l 904 132 l 904 0 z "},"ð":{"ha":1110,"x_min":68,"x_max":1044,"o":"m 1044 140 l 904 140 l 904 0 l 208 0 l 208 422 l 68 422 l 68 556 l 208 556 l 208 976 l 904 976 l 904 836 l 1044 836 l 1044 140 m 764 140 l 764 836 l 490 836 l 490 564 l 629 564 l 631 415 l 490 414 l 490 140 l 764 140 z "},"ñ":{"ha":1110,"x_min":68,"x_max":1044,"o":"m 1044 0 l 771 0 l 771 142 l 631 142 l 631 282 l 764 282 l 764 696 l 622 696 l 622 836 l 490 836 l 490 696 l 350 696 l 350 836 l 490 836 l 490 976 l 624 976 l 624 838 l 765 838 l 765 843 l 772 843 l 772 976 l 903 976 l 903 843 l 772 843 l 772 838 l 765 838 l 765 696 l 1044 696 l 1044 0 m 631 282 l 489 282 l 488 421 l 342 421 l 340 0 l 68 0 l 68 696 l 349 696 l 349 564 l 490 564 l 490 422 l 631 422 l 631 282 z "},"ò":{"ha":1110,"x_min":68,"x_max":1044,"o":"m 1044 140 l 904 140 l 904 0 l 208 0 l 208 142 l 68 142 l 68 556 l 208 556 l 208 693 l 486 693 l 489 836 l 482 836 l 482 844 l 349 844 l 349 976 l 482 976 l 482 844 l 489 844 l 489 836 l 622 836 l 622 696 l 904 696 l 904 554 l 1044 554 l 1044 140 m 764 140 l 764 554 l 349 554 l 349 140 l 764 140 z "},"ó":{"ha":1110,"x_min":68,"x_max":1044,"o":"m 1044 140 l 904 140 l 904 0 l 208 0 l 208 142 l 68 142 l 68 556 l 208 556 l 208 696 l 490 696 l 490 836 l 624 836 l 624 843 l 631 843 l 631 976 l 763 976 l 763 843 l 631 843 l 631 836 l 624 836 l 624 697 l 904 697 l 904 554 l 1044 554 l 1044 140 m 764 140 l 764 554 l 349 554 l 349 140 l 764 140 z "},"ô":{"ha":1110,"x_min":68,"x_max":1044,"o":"m 1044 140 l 904 140 l 904 0 l 208 0 l 208 142 l 68 142 l 68 556 l 208 556 l 208 696 l 350 696 l 350 836 l 490 836 l 490 976 l 622 976 l 622 836 l 764 836 l 764 696 l 904 696 l 904 554 l 1044 554 l 1044 140 m 622 704 l 622 836 l 490 836 l 490 704 l 622 704 m 764 140 l 764 554 l 349 554 l 349 140 l 764 140 z "},"õ":{"ha":1110,"x_min":68,"x_max":1044,"o":"m 1044 140 l 904 140 l 904 0 l 208 0 l 208 142 l 68 142 l 68 556 l 208 556 l 208 696 l 350 696 l 350 836 l 490 836 l 490 976 l 624 976 l 622 838 l 764 838 l 764 843 l 772 843 l 772 976 l 903 976 l 903 843 l 772 843 l 772 838 l 764 838 l 764 696 l 904 696 l 904 554 l 1044 554 l 1044 140 m 622 704 l 622 836 l 490 836 l 490 704 l 622 704 m 764 140 l 764 554 l 349 554 l 349 140 l 764 140 z "},"ö":{"ha":1110,"x_min":68,"x_max":1044,"o":"m 764 844 l 631 844 l 631 976 l 764 976 l 764 844 m 482 844 l 349 844 l 349 976 l 482 976 l 482 844 m 1044 140 l 904 140 l 904 0 l 208 0 l 208 142 l 68 142 l 68 554 l 208 554 l 208 696 l 904 696 l 904 554 l 1044 554 l 1044 140 m 764 140 l 764 554 l 349 554 l 349 140 l 764 140 z "},"÷":{"ha":1110,"x_min":68,"x_max":1044,"o":"m 622 704 l 490 704 l 490 976 l 622 976 l 622 704 m 1044 422 l 68 422 l 68 554 l 1044 554 l 1044 422 m 622 0 l 490 0 l 490 274 l 622 274 l 622 0 z "},"ø":{"ha":1110,"x_min":68,"x_max":1044,"o":"m 1044 140 l 904 140 l 904 0 l 349 0 l 347 139 l 207 139 l 207 139 l 200 139 l 200 0 l 68 0 l 68 140 l 200 139 l 200 139 l 207 139 l 207 282 l 68 282 l 68 836 l 208 836 l 208 976 l 764 976 l 764 838 l 913 838 l 913 976 l 1044 976 l 1043 832 l 906 832 l 906 708 l 1044 708 l 1044 140 m 763 703 l 763 836 l 349 836 l 349 422 l 482 422 l 482 563 l 622 563 l 622 703 l 763 703 m 764 140 l 764 554 l 631 554 l 631 414 l 490 414 l 490 274 l 350 274 l 350 140 l 764 140 z "},"ù":{"ha":1110,"x_min":68,"x_max":1044,"o":"m 622 704 l 489 704 l 489 836 l 482 836 l 482 844 l 349 844 l 349 976 l 482 976 l 482 844 l 489 844 l 489 836 l 622 836 l 622 704 m 1044 140 l 904 140 l 904 0 l 208 0 l 208 142 l 68 142 l 68 696 l 342 696 l 342 132 l 772 132 l 772 696 l 1044 696 l 1044 140 z "},"ú":{"ha":1110,"x_min":68,"x_max":1044,"o":"m 764 844 l 631 844 l 631 836 l 622 836 l 622 704 l 490 704 l 490 836 l 622 836 l 622 844 l 631 844 l 631 976 l 764 976 l 764 844 m 1044 140 l 904 140 l 904 0 l 208 0 l 208 142 l 68 142 l 68 696 l 342 696 l 342 132 l 772 132 l 772 696 l 1044 696 l 1044 140 z "},"û":{"ha":1110,"x_min":68,"x_max":1044,"o":"m 1044 140 l 904 140 l 904 0 l 208 0 l 208 142 l 68 142 l 68 696 l 350 696 l 350 836 l 490 836 l 490 976 l 622 976 l 622 836 q 764 836 754 836 l 764 696 l 1044 696 l 1044 140 m 764 140 l 764 696 l 622 696 l 622 836 l 490 836 l 490 696 l 349 696 l 349 140 l 764 140 z "},"ü":{"ha":1110,"x_min":68,"x_max":1044,"o":"m 764 844 l 631 844 l 631 976 l 764 976 l 764 844 m 482 844 l 349 844 l 349 976 l 482 976 l 482 844 m 1044 140 l 904 140 l 904 0 l 208 0 l 208 142 l 68 142 l 68 696 l 342 696 l 342 132 l 772 132 l 772 696 l 1044 696 l 1044 140 z "},"ý":{"ha":1110,"x_min":68,"x_max":1044,"o":"m 764 844 l 631 844 l 631 836 l 622 836 l 622 704 l 490 704 l 490 836 l 622 836 l 622 844 l 631 844 l 631 976 l 764 976 l 764 844 m 1044 422 l 904 422 l 904 281 l 763 281 l 763 0 l 349 0 l 349 282 l 208 282 l 208 422 l 68 422 l 68 696 l 342 696 l 342 414 l 772 414 l 772 696 l 1044 696 l 1044 422 z "},"þ":{"ha":1110,"x_min":68,"x_max":1044,"o":"m 1044 282 l 904 282 l 904 140 l 340 140 l 340 0 l 68 0 l 68 976 l 342 976 l 342 836 l 904 836 l 904 696 l 1044 696 l 1044 282 m 764 282 l 764 696 l 349 696 l 349 282 l 764 282 z "},"ÿ":{"ha":1110,"x_min":68,"x_max":1044,"o":"m 764 844 l 631 844 l 631 976 l 764 976 l 764 844 m 482 844 l 349 844 l 349 976 l 482 976 l 482 844 m 1044 422 l 904 422 l 904 281 l 763 281 l 763 0 l 349 0 l 349 282 l 208 282 l 208 422 l 68 422 l 68 696 l 342 696 l 342 414 l 772 414 l 772 696 l 1044 696 l 1044 422 z "},"ı":{"ha":1110,"x_min":208,"x_max":904,"o":"m 904 0 l 208 0 l 208 133 l 349 133 l 349 563 l 208 563 l 208 696 l 904 696 l 904 563 l 763 563 l 763 132 l 904 132 l 904 0 z "},"Ł":{"ha":1110,"x_min":68,"x_max":1044,"o":"m 1044 0 l 349 0 l 349 282 l 68 282 l 68 414 l 208 414 l 208 556 l 349 556 l 349 976 l 622 976 l 622 696 l 904 696 l 904 563 l 763 563 l 763 422 l 622 422 l 622 132 l 1044 132 l 1044 0 z "},"ł":{"ha":1110,"x_min":68,"x_max":1044,"o":"m 1044 563 l 904 563 l 904 422 l 763 422 l 763 132 l 904 132 l 904 0 l 210 0 l 210 133 l 347 133 l 347 282 l 68 282 l 68 414 l 208 414 l 208 556 l 349 556 l 349 844 l 208 844 l 208 976 l 903 976 l 903 843 l 764 842 l 764 693 l 1044 696 l 1044 563 z "},"Œ":{"ha":1110,"x_min":68,"x_max":1044,"o":"m 1044 0 l 208 0 l 208 142 l 68 142 l 68 836 l 208 836 l 208 976 l 1044 976 l 1044 844 l 764 844 l 764 554 l 1044 554 l 1044 422 l 764 422 l 764 132 l 1044 132 l 1044 0 m 482 140 l 482 836 l 349 836 l 349 140 l 482 140 z "},"œ":{"ha":1110,"x_min":68,"x_max":1044,"o":"m 1044 0 l 208 0 l 208 142 l 68 142 l 68 836 l 208 836 l 208 976 l 1044 976 l 1044 844 l 764 844 l 764 554 l 1044 554 l 1044 422 l 764 422 l 764 132 l 1044 132 l 1044 0 m 482 140 l 482 836 l 349 836 l 349 140 l 482 140 z "},"Š":{"ha":1110,"x_min":68,"x_max":1044,"o":"m 1044 140 l 904 140 l 904 0 l 208 0 l 208 147 l 771 146 l 771 275 l 208 274 l 208 422 l 68 422 l 68 556 l 208 556 l 208 696 l 489 696 l 489 838 l 483 838 l 483 844 l 349 844 l 349 976 l 483 976 l 483 844 l 489 844 l 489 838 l 625 838 l 625 843 l 631 843 l 631 976 l 763 976 l 763 843 l 631 843 l 631 838 l 625 838 l 625 694 l 904 696 l 904 549 l 342 550 l 342 421 l 904 421 l 904 274 l 1044 274 l 1044 140 z "},"š":{"ha":1110,"x_min":68,"x_max":1044,"o":"m 1044 140 l 904 140 l 904 0 l 208 0 l 208 147 l 771 146 l 771 275 l 208 274 l 208 422 l 68 422 l 68 556 l 208 556 l 208 696 l 489 696 l 489 838 l 483 838 l 483 844 l 349 844 l 349 976 l 483 976 l 483 844 l 489 844 l 489 838 l 625 838 l 625 843 l 631 843 l 631 976 l 763 976 l 763 843 l 631 843 l 631 838 l 625 838 l 625 694 l 904 696 l 904 549 l 342 550 l 342 421 l 904 421 l 904 274 l 1044 274 l 1044 140 z "},"Ÿ":{"ha":1110,"x_min":68,"x_max":1044,"o":"m 764 844 l 631 844 l 631 976 l 764 976 l 764 844 m 482 844 l 349 844 l 349 976 l 482 976 l 482 844 m 1044 422 l 904 422 l 904 281 l 763 281 l 763 0 l 349 0 l 349 282 l 208 282 l 208 422 l 68 422 l 68 696 l 342 696 l 342 414 l 772 414 l 772 696 l 1044 696 l 1044 422 z "},"Ž":{"ha":1110,"x_min":68,"x_max":1044,"o":"m 1044 0 l 68 0 l 68 133 l 208 133 l 208 274 l 350 274 l 350 415 l 489 417 l 489 564 l 68 563 l 68 696 l 489 696 l 489 835 l 482 835 l 482 844 l 349 844 l 349 976 l 483 976 l 482 844 l 489 844 l 489 835 l 624 838 l 624 843 l 631 843 l 631 976 l 763 976 l 763 843 l 631 843 l 631 838 l 624 838 l 624 696 l 1044 696 l 1044 563 l 904 563 l 904 422 l 763 422 l 761 263 l 624 263 l 624 158 l 1040 160 l 1044 0 z "},"ž":{"ha":1110,"x_min":68,"x_max":1044,"o":"m 1044 0 l 68 0 l 68 133 l 208 133 l 208 274 l 350 274 l 350 415 l 489 417 l 489 564 l 68 563 l 68 696 l 489 696 l 489 835 l 482 835 l 482 844 l 349 844 l 349 976 l 483 976 l 482 844 l 489 844 l 489 835 l 624 838 l 624 843 l 631 843 l 631 976 l 763 976 l 763 843 l 631 843 l 631 838 l 624 838 l 624 696 l 1044 696 l 1044 563 l 904 563 l 904 422 l 763 422 l 761 263 l 624 263 l 624 158 l 1040 160 l 1044 0 z "},"ƒ":{"ha":1110,"x_min":68,"x_max":1044,"o":"m 1044 704 l 913 704 l 913 836 l 904 836 l 904 844 l 622 844 l 622 554 l 904 554 l 904 422 l 482 422 l 482 140 l 340 140 l 340 0 l 68 0 l 68 133 l 208 133 l 208 422 l 68 422 l 68 556 l 350 556 l 350 836 l 490 836 l 490 976 l 904 976 l 904 844 l 913 844 l 913 836 l 1044 836 l 1044 704 z "},"ˇ":{"ha":1110,"x_min":208,"x_max":904,"o":"m 904 844 l 772 844 l 772 836 l 763 836 l 763 703 l 631 703 l 631 697 l 622 697 l 622 563 l 489 563 l 489 696 l 482 696 l 482 704 l 349 704 l 349 835 l 342 835 l 342 844 l 208 844 l 208 976 l 342 976 l 342 844 l 349 844 l 349 835 l 483 835 l 482 704 l 489 704 l 489 696 l 622 697 l 622 703 l 631 703 l 631 836 l 763 836 l 763 844 l 772 844 l 772 976 l 904 976 l 904 844 z "},"˚":{"ha":1110,"x_min":208,"x_max":764,"o":"m 764 563 l 622 563 l 622 422 l 349 422 l 349 564 l 208 564 l 208 836 l 349 836 l 349 976 l 622 976 l 622 836 l 764 836 l 764 563 m 622 563 l 622 836 l 349 836 l 349 563 l 622 563 z "},"˛":{"ha":1110,"x_min":349,"x_max":764,"o":"m 764 422 l 631 422 l 631 414 l 621 414 l 621 281 l 490 281 l 490 274 l 483 274 l 483 142 l 490 142 l 490 132 l 763 132 l 763 0 l 490 0 l 490 132 l 483 132 l 483 142 l 349 142 l 349 274 l 483 274 l 483 281 l 490 281 l 490 414 l 621 414 l 621 422 l 631 422 l 631 554 l 764 554 l 764 422 z "},"˝":{"ha":1110,"x_min":68,"x_max":904,"o":"m 904 844 l 771 844 l 771 836 l 763 836 l 763 703 l 631 703 l 631 696 l 622 696 l 622 563 l 490 563 l 490 696 l 622 696 l 622 703 l 631 703 l 631 836 l 763 836 l 763 844 l 771 844 l 771 976 l 904 976 l 904 844 m 482 844 l 349 844 l 349 836 l 340 836 l 340 703 l 208 703 l 208 696 l 200 696 l 200 563 l 68 563 l 68 696 l 200 696 l 200 703 l 208 703 l 208 836 l 340 836 l 340 844 l 349 844 l 349 976 l 482 976 l 482 844 z "},"μ":{"ha":1110,"x_min":68,"x_max":1044,"o":"m 1044 282 l 904 282 l 904 142 l 489 142 l 489 274 l 482 274 l 482 279 l 340 279 l 340 0 l 68 0 l 68 976 l 342 976 l 342 414 l 482 414 l 482 279 l 489 279 l 489 274 l 772 274 l 772 976 l 1044 976 l 1044 282 z "},"–":{"ha":1110,"x_min":68,"x_max":1044,"o":"m 1044 422 l 68 422 l 68 554 l 1044 554 l 1044 422 z "},"—":{"ha":1110,"x_min":68,"x_max":1044,"o":"m 1044 422 l 68 422 l 68 554 l 1044 554 l 1044 422 z "},"‘":{"ha":1110,"x_min":349,"x_max":622,"o":"m 622 838 l 492 836 l 490 976 l 622 976 l 622 838 m 622 422 l 349 422 l 349 836 l 482 836 l 483 696 l 622 696 l 622 422 z "},"’":{"ha":1110,"x_min":349,"x_max":622,"o":"m 622 563 l 489 563 l 489 704 l 349 704 l 349 976 l 622 976 l 622 563 m 482 422 l 350 422 l 350 563 l 482 563 l 482 422 z "},"“":{"ha":1110,"x_min":208,"x_max":904,"o":"m 903 836 l 772 836 l 772 976 l 903 976 l 903 836 m 904 422 l 631 422 l 631 836 l 764 836 l 764 696 l 904 696 l 904 422 m 482 838 l 350 836 l 350 976 l 482 976 l 482 838 m 482 422 l 208 422 l 208 836 l 340 836 l 342 696 l 482 696 l 482 422 z "},"”":{"ha":1110,"x_min":208,"x_max":904,"o":"m 904 563 l 771 563 l 771 704 l 631 704 l 631 976 l 904 976 l 904 563 m 763 422 l 631 422 l 631 563 l 761 563 l 763 422 m 482 563 l 347 563 l 349 704 l 208 704 l 208 976 l 482 976 l 482 563 m 340 422 l 210 422 l 208 563 l 340 563 l 340 422 z "},"†":{"ha":1110,"x_min":349,"x_max":763,"o":"m 763 703 l 622 703 l 622 282 l 490 282 l 490 704 l 349 704 l 349 836 l 490 836 l 490 976 l 622 976 l 622 836 l 763 836 l 763 703 z "},"‡":{"ha":1110,"x_min":349,"x_max":763,"o":"m 763 422 l 622 422 l 622 282 l 489 282 l 489 422 l 350 422 l 350 557 q 489 581 410 542 l 489 704 l 349 704 l 349 836 l 490 836 l 490 976 l 622 976 l 622 836 l 763 836 l 763 703 q 624 678 703 717 l 624 554 l 763 554 l 763 422 z "},"•":{"ha":1110,"x_min":208,"x_max":904,"o":"m 904 282 l 763 282 l 763 140 l 349 140 l 349 282 l 208 282 l 208 696 l 349 696 l 349 836 l 764 836 l 764 696 l 904 696 l 904 282 z "},"…":{"ha":1110,"x_min":68,"x_max":1044,"o":"m 1044 0 l 913 0 l 913 274 l 1044 274 l 1044 0 m 622 0 l 490 0 l 490 274 l 622 274 l 622 0 m 200 0 l 68 0 l 68 274 l 200 274 l 200 0 z "},"‰":{"ha":1110,"x_min":68,"x_max":1044,"o":"m 1017 0 l 883 0 l 883 274 l 1017 274 l 1017 0 m 1044 704 l 904 704 l 904 563 l 763 563 l 763 422 l 622 421 l 624 281 l 629 281 l 629 272 l 764 272 l 764 0 l 631 0 l 629 272 l 624 272 l 624 281 l 482 281 l 482 140 l 340 140 l 340 0 l 68 0 l 68 274 l 208 274 l 208 414 l 350 414 l 350 556 l 490 556 l 490 696 l 631 696 l 631 836 l 771 836 l 771 976 l 1044 976 l 1044 704 m 340 704 l 68 704 l 68 976 l 340 976 l 340 704 z "},"‹":{"ha":1110,"x_min":208,"x_max":622,"o":"m 622 704 l 490 704 l 490 696 l 481 696 l 481 563 l 349 561 l 350 696 l 481 696 l 481 704 l 490 704 l 490 836 l 622 836 l 622 704 m 622 142 l 489 142 l 489 274 l 482 274 l 482 282 l 349 282 l 349 414 l 342 414 l 342 422 l 208 422 l 208 556 l 342 556 l 342 422 l 349 422 l 349 414 l 482 414 l 482 282 l 489 282 l 489 274 l 622 274 l 622 142 z "},"›":{"ha":1110,"x_min":349,"x_max":763,"o":"m 622 561 l 490 561 l 490 696 l 482 696 l 482 703 l 349 703 l 349 836 l 482 836 l 482 703 l 490 703 l 490 696 l 622 696 l 622 561 m 763 422 l 629 422 l 629 414 l 622 414 l 622 282 l 489 282 l 489 274 l 482 274 l 482 140 l 349 140 l 349 274 l 482 274 l 482 282 l 489 282 l 489 414 l 622 414 l 622 422 l 629 422 l 629 556 l 763 556 l 763 422 z "},"⁄":{"ha":1110,"x_min":68,"x_max":1044,"o":"m 1044 844 l 913 844 l 913 836 l 904 836 l 904 703 l 772 703 l 772 696 l 763 696 l 763 563 l 631 563 l 631 556 l 622 556 l 622 422 l 490 422 l 490 414 l 482 414 l 482 281 l 350 281 l 350 274 l 340 274 l 340 140 l 208 140 l 208 133 l 200 133 l 200 0 l 68 0 l 68 133 l 200 133 l 200 140 l 208 140 l 208 274 l 340 274 l 340 281 l 350 281 l 350 414 l 482 414 l 482 422 l 490 422 l 490 556 l 622 556 l 622 563 l 631 563 l 631 696 l 763 696 l 763 703 l 772 703 l 772 836 l 904 836 l 904 844 l 913 844 l 913 976 l 1044 976 l 1044 844 z "},"™":{"ha":1110,"x_min":68,"x_max":1044,"o":"m 1044 422 l 913 422 l 911 844 l 772 844 l 772 838 l 763 838 l 763 703 l 622 703 l 622 422 l 490 422 l 489 842 l 340 842 l 340 422 l 208 422 l 208 844 l 68 844 l 68 976 l 624 976 l 622 836 l 763 838 l 763 844 l 772 844 l 772 978 l 1044 978 l 1044 422 z "},"":{"ha":1110,"x_min":68,"x_max":1044,"o":"m 1044 0 l 490 0 l 490 133 l 631 133 l 631 844 l 340 844 l 340 554 l 482 554 l 482 422 l 340 422 l 340 0 l 68 0 l 68 976 l 1044 976 l 1044 844 l 904 844 l 904 132 l 1044 132 l 1044 0 z "},"":{"ha":1110,"x_min":68,"x_max":1044,"o":"m 1044 0 l 631 0 l 631 844 l 340 844 l 340 554 l 482 554 l 482 422 l 340 422 l 340 0 l 68 0 l 68 976 l 904 976 l 904 132 l 1044 132 l 1044 0 z "}}}
